<svg width="30px" height="30px" viewBox="0 0 106.000000 147.000000"  xmlns="http://www.w3.org/2000/svg" preserveAspectRatio="xMidYMid meet">
    <g xmlns="http://www.w3.org/2000/svg" transform="translate(0.000000,147.000000) scale(0.100000,-0.100000)" fill="#D46A6A" stroke="none">
        <path d="M154 1346 c-38 -38 -37 -28 -38 -321 l-1 -130 49 -3 c44 -3 48 -1 41 15 -17 42 -17 140 -1 197 22 74 98 155 171 182 59 21 63 25 57 64 l-4 30 -120 0 -120 0 -34 -34z"/>
        <path d="M510 1342 c0 -38 1 -40 41 -46 60 -10 150 -59 202 -111 58 -58 96 -136 110 -225 l11 -70 33 0 33 0 0 210 0 210 -29 32 -29 33 -186 3 -186 3 0 -39z"/>
        <path d="M510 1060 l0 -170 140 0 140 0 0 40 c0 129 -112 259 -252 294 l-28 6 0 -170z"/>
        <path d="M375 1203 c-74 -39 -104 -95 -105 -191 0 -75 9 -95 49 -112 58 -24 111 8 111 65 0 39 -31 75 -66 75 -28 0 -47 24 -39 49 8 26 33 33 73 22 17 -5 33 -9 33 -8 1 1 2 28 3 60 1 64 -6 68 -59 40z"/>
        <path d="M118 808 c-3 -7 -4 -152 -2 -322 2 -287 4 -311 22 -335 37 -51 43 -51 405 -49 l339 3 29 33 29 32 0 325 0 325 -35 0 c-32 0 -34 -3 -40 -37 -40 -256 -169 -441 -380 -545 -80 -40 -151 -61 -186 -56 -19 2 -24 9 -24 32 0 27 4 30 60 46 220 61 383 226 439 446 9 34 16 74 16 88 l0 26 -334 0 c-258 0 -335 -3 -338 -12z"/>
    </g>
</svg>